# xmcd
#
# Track frame offsets: 
#        150
#        17407
#        34680
#
# Disc length: 655 seconds
#
# Revision: 3
# Processed by: cddbd v1.5.2PL0 Copyright (c) Steve Scherf et al.
# Submitted via: ExactAudioCopyFreeDBPlugin 1.0
#
DISCID=15028d03
DTITLE=8／15(eight-fifteen) - vive, Survive
DYEAR=2001
DGENRE=Rock
TTITLE0=vive, Survive
TTITLE1=vive, Survive (original karaoke)
TTITLE2=電波少年的 vive, Survive （original sound track？)
EXTD=YEAR: 2005
EXTT0=
EXTT1=
EXTT2=
PLAYORDER=
